<?xml version="1.0" encoding="UTF-8"?>
<svg id="Capa_2" data-name="Capa 2" xmlns="http://www.w3.org/2000/svg" viewBox="0 0 228.69 89.78">
  <defs>
    <style>
      .cls-1 {
        fill: #fff;
      }
    </style>
  </defs>
  <g id="Capa_1-2" data-name="Capa 1">
    <g>
      <g>
        <path class="cls-1" d="m73.28,14.53l-.02-6h3.4c1.32-.01,2.19-.89,2.18-2.34l-.02-6.17,7.03-.02.02,8.44,8.35-.02.02,6.05-8.35.02.04,14.09c0,2.62,1.39,4.19,4.16,4.18h4.03s.02,6.28.02,6.28h-5.59c-6.39.03-10.09-3.63-10.11-10.15l-.04-14.38h-5.13Z"/>
        <path class="cls-1" d="m113.92,7.61c9.73-.02,15.05,7.24,15.07,15.85v2.39s-23.03.06-23.03.06c.24,4.66,3.48,7.79,8.26,7.78,3.63,0,6.45-1.7,7.53-4.27l6.97-.02c-1.54,6.29-6.94,10.32-14.72,10.34-4.44.01-8.13-1.49-11.01-4.45-2.83-3.02-4.28-6.8-4.29-11.4-.02-9.55,6.41-16.26,15.22-16.28Zm7.92,12.9c-.41-4.13-3.53-6.86-7.91-6.85-4.15.01-7.42,2.99-7.87,6.89l15.78-.04Z"/>
        <path class="cls-1" d="m157.76,10.82c2.77,2.2,4.45,5.11,5.03,8.72l-7.66.02c-.93-3.08-3.82-5.17-7.27-5.16-5.01.01-8.28,3.92-8.27,9.22.01,5.35,3.48,9.19,8.38,9.18,3.46,0,6.27-2,7.13-4.97l7.66-.02c-.57,3.55-2.23,6.41-4.99,8.57-2.7,2.16-6.04,3.28-9.9,3.29-9.45.02-15.86-7.12-15.88-16.03-.02-9.02,6.35-16.08,15.8-16.11,3.86,0,7.2,1.09,9.97,3.29Z"/>
        <path class="cls-1" d="m166,38.85l-.08-30.62,7.14-.02v3.73s.41,0,.41,0c1.38-2.51,4.42-4.49,8.51-4.5,3.34,0,5.99,1.03,7.96,3.18,2.02,2.09,3.01,4.82,3.02,8.14l.05,20.02-7.49.02-.05-18.04c0-3.73-2.38-6.22-5.83-6.21-3.63,0-6.21,2.87-6.2,6.77l.04,17.52-7.49.02Z"/>
        <path class="cls-1" d="m212.52,7.36c9.33-.14,16.32,7.12,16.17,16.02.02,8.96-6.7,16.08-16.09,16.11-4.72.01-8.59-1.49-11.65-4.51-3-3.08-4.51-6.92-4.52-11.51-.02-9.08,6.53-16.08,16.09-16.11Zm-6.11,22.72c1.62,1.68,3.63,2.55,6.11,2.55s4.55-.89,6.16-2.58c1.61-1.75,2.41-3.96,2.4-6.64,0-2.68-.82-4.89-2.44-6.57-1.62-1.74-3.64-2.61-6.11-2.6-2.48,0-4.55.88-6.16,2.63-1.55,1.69-2.35,3.91-2.34,6.58,0,2.68.82,4.89,2.38,6.63Z"/>
      </g>
      <g>
        <path class="cls-1" d="m80.32,67.34c.24,2.56,2.37,4.01,5.77,4,3.4,0,5.41-1.53,5.4-3.68-.02-6.52-17.4-.31-17.43-13.11,0-2.68,1.08-4.89,3.21-6.7,2.13-1.81,5.06-2.69,8.69-2.7,6.74-.02,11.47,3.46,11.95,9.46l-6.62.02c-.29-2.33-2.14-3.66-5.37-3.65-3,0-5.01,1.29-5,3.33.01,5.82,17.8-.39,17.83,12.94.01,5.88-4.76,10.02-12.76,10.04-8.01.02-12.28-3.69-12.58-9.92l6.91-.02Z"/>
        <path class="cls-1" d="m103.54,45.86l7.49-.02.05,18.1c0,3.73,2.44,6.28,5.89,6.27,3.63,0,6.21-2.93,6.2-6.83l-.04-17.58,7.49-.02.08,30.62-7.14.02v-3.73s-.47,0-.47,0c-1.32,2.51-4.48,4.49-8.46,4.5-3.34,0-5.99-1.03-8.01-3.18-2.02-2.15-3.01-4.82-3.02-8.14l-.05-20.02Z"/>
        <path class="cls-1" d="m136.36,89.78l-.11-44.01,7.37-.02v3.9s.41,0,.41,0c.86-1.34,3.5-4.67,9.09-4.68,4.26-.01,7.72,1.44,10.32,4.4,2.66,2.9,3.99,6.74,4,11.51s-1.3,8.68-3.89,11.71c-2.58,2.98-5.98,4.5-10.13,4.51-5.3.01-8.3-2.95-9.23-4.69h-.4s.04,17.35.04,17.35l-7.49.02Zm15.39-19.54c4.84-.01,8.11-3.8,8.1-9.22-.01-5.59-3.31-9.19-8.2-9.18s-8.05,3.86-8.04,9.22c.01,5.59,3.36,9.19,8.14,9.18Z"/>
        <path class="cls-1" d="m185.08,44.89c9.73-.02,15.05,7.24,15.07,15.85v2.39s-23.03.06-23.03.06c.24,4.66,3.48,7.79,8.26,7.78,3.63,0,6.45-1.7,7.53-4.27l6.97-.02c-1.54,6.29-6.94,10.32-14.72,10.34-4.44.01-8.13-1.49-11.01-4.45-2.83-3.02-4.28-6.8-4.29-11.4-.02-9.55,6.41-16.26,15.22-16.28Zm7.92,12.9c-.41-4.13-3.53-6.86-7.91-6.85-4.15.01-7.42,2.99-7.87,6.89l15.78-.04Z"/>
        <path class="cls-1" d="m204.51,76.22l-.08-30.62,7.08-.02v5.01s.47,0,.47,0c1.15-2.74,4.02-5.13,7.94-5.14h2.76s.02,7.21.02,7.21h-3.11c-4.78.02-7.65,3.52-7.64,9.05l.04,14.49-7.49.02Z"/>
      </g>
      <path class="cls-1" d="m36.63,9.29c0-.82-.66-1.48-1.47-1.48l-23.08.06-10.61.03C.65,7.9,0,8.57,0,9.39l.03,10.72.06,23.33c0,.82.66,1.48,1.47,1.48l9.14-.02c.81,0,1.47-.67,1.47-1.49l-.06-21.84c0-.82.65-1.49,1.47-1.49l21.61-.05c.81,0,1.47-.67,1.47-1.49l-.02-9.23Z"/>
      <path class="cls-1" d="m12.25,75.97c0,.82.66,1.48,1.47,1.48l23.08-.06,10.61-.03c.81,0,1.47-.67,1.47-1.49l-.03-10.72-.06-23.33c0-.82-.66-1.48-1.47-1.48l-9.14.02c-.81,0-1.47.67-1.47,1.49l.06,21.84c0,.82-.65,1.49-1.47,1.49l-21.61.05c-.81,0-1.47.67-1.47,1.49l.02,9.23Z"/>
    </g>
  </g>
</svg>