<?xml version="1.0" encoding="UTF-8"?>
<svg id="Capa_2" data-name="Capa 2" xmlns="http://www.w3.org/2000/svg" viewBox="0 0 582.13 654.29">
  <defs>
    <style>
      .cls-1 {
        fill: #7e35e4;
      }
    </style>
  </defs>
  <g id="Capa_1-2" data-name="Capa 1">
    <g>
      <g>
        <g>
          <path class="cls-1" d="m0,374.72v-22.23h12.73c4.96,0,8.2-3.24,8.2-8.63v-22.87h26.32v31.29h31.29v22.44h-31.29v52.22c0,9.71,5.18,15.54,15.54,15.54h15.1v23.3h-20.93c-23.95,0-37.76-13.59-37.76-37.76v-53.3H0Z"/>
          <path class="cls-1" d="m152.33,349.47c36.47,0,56.32,26.97,56.32,58.91v8.85h-86.31c.86,17.26,12.95,28.91,30.86,28.91,13.6,0,24.17-6.26,28.27-15.75h26.11c-5.83,23.3-26.11,38.19-55.24,38.19-16.62,0-30.43-5.61-41.22-16.62-10.57-11.22-15.97-25.25-15.97-42.29,0-35.39,24.17-60.2,57.19-60.2Zm29.56,47.91c-1.51-15.32-13.16-25.46-29.56-25.46-15.54,0-27.84,11-29.56,25.46h59.13Z"/>
          <path class="cls-1" d="m316.53,361.77c10.36,8.2,16.62,18.99,18.77,32.37h-28.7c-3.45-11.44-14.24-19.2-27.19-19.2-18.77,0-31.07,14.46-31.07,34.09s12.95,34.09,31.29,34.09c12.95,0,23.52-7.34,26.76-18.34h28.7c-2.16,13.16-8.41,23.74-18.77,31.72-10.14,7.99-22.66,12.09-37.11,12.09-35.39,0-59.34-26.54-59.34-59.56s23.95-59.56,59.34-59.56c14.46,0,26.97,4.1,37.33,12.3Z"/>
          <path class="cls-1" d="m347.15,465.78v-113.5h26.76v13.81h1.51c5.18-9.28,16.62-16.62,31.94-16.62,12.52,0,22.44,3.89,29.78,11.87,7.55,7.77,11.22,17.91,11.22,30.21v74.23h-28.05v-66.89c0-13.81-8.85-23.09-21.79-23.09-13.6,0-23.31,10.57-23.31,25.03v64.95h-28.05Z"/>
          <path class="cls-1" d="m521.71,349.47c34.96-.43,61.07,26.54,60.42,59.56,0,33.23-25.25,59.56-60.42,59.56-17.7,0-32.15-5.61-43.59-16.83-11.22-11.44-16.83-25.68-16.83-42.72,0-33.66,24.6-59.56,60.42-59.56Zm-23.09,84.16c6.04,6.25,13.59,9.49,22.87,9.49s17.05-3.24,23.09-9.49c6.04-6.47,9.06-14.67,9.06-24.6s-3.02-18.13-9.06-24.38c-6.04-6.47-13.6-9.71-22.87-9.71s-17.05,3.24-23.09,9.71c-5.82,6.26-8.85,14.46-8.85,24.38s3.02,18.13,8.85,24.6Z"/>
        </g>
        <g>
          <path class="cls-1" d="m25.9,570.57c.86,9.5,8.85,14.89,21.58,14.89s20.28-5.61,20.28-13.59c0-24.17-65.17-1.3-65.17-48.77,0-9.93,4.1-18.13,12.09-24.81,7.98-6.69,18.99-9.93,32.58-9.93,25.25,0,42.94,12.95,44.67,35.18h-24.81c-1.08-8.63-7.99-13.6-20.07-13.6-11.22,0-18.77,4.75-18.77,12.3,0,21.58,66.68-1.29,66.68,48.12,0,21.79-17.91,37.11-47.91,37.11S1.08,593.66,0,570.57h25.9Z"/>
          <path class="cls-1" d="m113.06,491.16h28.05v67.11c0,13.81,9.06,23.3,22.01,23.3,13.6,0,23.3-10.79,23.3-25.25v-65.17h28.05v113.5h-26.76v-13.81h-1.72c-4.96,9.28-16.83,16.62-31.72,16.62-12.52,0-22.44-3.88-30-11.87-7.55-7.98-11.22-17.91-11.22-30.21v-74.23Z"/>
          <path class="cls-1" d="m235.61,654.29v-163.13h27.62v14.46h1.51c3.24-4.96,13.16-17.26,34.09-17.26,15.97,0,28.91,5.4,38.63,16.4,9.93,10.79,14.89,25.03,14.89,42.72s-4.96,32.15-14.67,43.37c-9.71,11-22.44,16.62-37.98,16.62-19.85,0-31.07-11-34.53-17.48h-1.51v64.3h-28.05Zm57.83-72.29c18.13,0,30.43-14.03,30.43-34.09s-12.3-34.09-30.64-34.09-30.21,14.24-30.21,34.09,12.52,34.09,30.43,34.09Z"/>
          <path class="cls-1" d="m418.57,488.35c36.47,0,56.32,26.97,56.32,58.91v8.85h-86.31c.86,17.26,12.95,28.91,30.86,28.91,13.59,0,24.17-6.25,28.27-15.75h26.11c-5.82,23.31-26.11,38.19-55.24,38.19-16.62,0-30.43-5.61-41.21-16.62-10.57-11.22-15.97-25.25-15.97-42.29,0-35.39,24.17-60.2,57.18-60.2Zm29.56,47.91c-1.51-15.32-13.16-25.46-29.56-25.46-15.53,0-27.83,11-29.56,25.46h59.13Z"/>
          <path class="cls-1" d="m491.07,604.66v-113.5h26.54v18.56h1.73c4.32-10.14,15.1-18.99,29.78-18.99h10.36v26.76h-11.65c-17.91,0-28.7,12.95-28.7,33.45v53.73h-28.05Z"/>
        </g>
      </g>
      <g>
        <path class="cls-1" d="m337.04,5.51c0-3.04-2.47-5.51-5.51-5.51h-126.21c-3.04,0-5.51,2.47-5.51,5.51v126.21c0,3.04,2.47,5.51,5.51,5.51h34.23c3.04,0,5.51-2.47,5.51-5.51V50.75c0-3.04,2.47-5.51,5.51-5.51h80.96c3.04,0,5.51-2.47,5.51-5.51V5.51Z"/>
        <path class="cls-1" d="m245.09,252.46c0,3.04,2.47,5.51,5.51,5.51h126.21c3.04,0,5.51-2.47,5.51-5.51v-126.21c0-3.04-2.47-5.51-5.51-5.51h-34.23c-3.04,0-5.51,2.47-5.51,5.51v80.96c0,3.04-2.47,5.51-5.51,5.51h-80.96c-3.04,0-5.51,2.47-5.51,5.51v34.23Z"/>
      </g>
    </g>
  </g>
</svg>