<svg width="28" height="28" viewBox="0 0 28 28" fill="none" xmlns="http://www.w3.org/2000/svg">
<path d="M14 2C11.6266 2 9.30655 2.70379 7.33316 4.02236C5.35977 5.34094 3.8217 7.21508 2.91345 9.4078C2.0052 11.6005 1.76756 14.0133 2.23058 16.3411C2.6936 18.6689 3.83649 20.807 5.51472 22.4853C7.19295 24.1635 9.33115 25.3064 11.6589 25.7694C13.9867 26.2324 16.3995 25.9948 18.5922 25.0865C20.7849 24.1783 22.6591 22.6402 23.9776 20.6668C25.2962 18.6934 26 16.3734 26 14C25.9998 10.8175 24.7355 7.76533 22.4851 5.51494C20.2347 3.26455 17.1825 2.0002 14 2Z" stroke="white" stroke-width="3" stroke-miterlimit="10"/>
</svg>
