<svg width="1440" height="306" viewBox="0 0 1440 306" fill="none" xmlns="http://www.w3.org/2000/svg">
<path d="M1371.27 239.287C1338.36 218.844 1311.98 190.485 1283.58 164.904C1255.6 139.698 1228.95 115.148 1191.14 104.183C1151.24 92.6138 1108.93 99.4243 1071.96 117.413C1032.88 136.427 999.644 164.858 961.596 185.599C923.035 206.612 882.308 217.918 838.05 214.464C800.41 211.529 764.646 198.471 732.488 180.069C699.922 161.431 670.471 138.54 640.389 116.521C611.385 95.2927 581.662 72.5947 544.287 67.8862C477.052 59.4126 417.357 109.918 360.17 136.223C297.428 165.083 223.748 185.959 155.345 165.991C115.937 154.492 87.3738 131.014 67.283 96.6418C48.3703 64.2842 34.7805 21.5962 -4.01217 6.51212C-34.562 -5.36492 -67.8477 3.71112 -97.6889 13.7593C-128.126 24.0094 -158.72 37.1018 -191.197 39.3604C-235.114 42.4109 -273.067 28.4832 -305 5.08015L458.486 1053.46L1590.29 284.123L1562.29 245.671C1504.16 278.446 1427.03 273.92 1371.27 239.287Z" fill="url(#paint0_linear_173_58)"/>
<defs>
<linearGradient id="paint0_linear_173_58" x1="761.165" y1="1012.11" x2="606.569" y2="-119.46" gradientUnits="userSpaceOnUse">
<stop stop-color="#7532D2"/>
<stop offset="0.557292" stop-color="#5A299E" stop-opacity="0.515625"/>
<stop offset="1" stop-color="#3E2067" stop-opacity="0"/>
</linearGradient>
</defs>
</svg>
