<svg width="1440" height="208" viewBox="0 0 1440 208" fill="none" xmlns="http://www.w3.org/2000/svg">
<path d="M1314.42 193.131C1283.75 174.666 1258.81 148.621 1232.11 125.23C1205.8 102.181 1180.72 79.7196 1145.87 70.2645C1109.1 60.2882 1070.68 67.6262 1037.47 85.3432C1002.37 104.069 972.893 131.51 938.788 151.835C904.222 172.427 867.385 183.952 826.876 181.693C792.425 179.775 759.378 168.309 729.462 151.744C699.165 134.965 671.583 114.124 643.453 94.116C616.329 74.8258 588.505 54.1717 554.242 50.5822C492.604 44.1217 439.64 92.8815 388.232 118.858C331.83 147.358 265.199 168.604 202.147 151.374C165.821 141.454 139.032 120.041 119.647 88.2091C101.398 58.2429 87.6952 18.4566 51.8224 5.15477C23.572 -5.31879 -6.5396 3.94594 -33.4772 14.0468C-60.9527 24.3506 -88.4847 37.3272 -118.066 40.1714C-158.066 44.0141 -193.137 31.7795 -223 10.5126L505.843 978.056L1515.73 230.36L1489 194.873C1436.92 226.947 1366.38 224.413 1314.42 193.131Z" fill="url(#paint0_linear_162_234)"/>
<defs>
<linearGradient id="paint0_linear_162_234" x1="780.909" y1="932.481" x2="605.41" y2="-126.744" gradientUnits="userSpaceOnUse">
<stop stop-color="#7532D2"/>
<stop offset="0.557292" stop-color="#5A299E" stop-opacity="0.515625"/>
<stop offset="1" stop-color="#3E2067" stop-opacity="0"/>
</linearGradient>
</defs>
</svg>
